<svg xmlns="http://www.w3.org/2000/svg" viewBox="0 0 48 48">
  <path fill="#4285F4" d="M43.6 24.5c0-1.4-.1-2.8-.4-4.2H24v7.9h11c-.5 2.6-2 4.8-4.2 6.3v5.2h6.8c4-3.7 6.2-9 6.2-15.2z"/>
  <path fill="#34A853" d="M24 44c5.4 0 9.9-1.8 13.2-4.9l-6.8-5.2c-1.8 1.2-4.1 2-6.4 2-4.9 0-9-3.3-10.5-7.7H6.5v5.3C9.8 39.8 16.4 44 24 44z"/>
  <path fill="#FBBC05" d="M13.5 28.2c-.4-1.3-.7-2.7-.7-4.2s.2-2.9.7-4.2v-5.3H6.5C5 17.3 4 20.5 4 24s1 6.7 2.5 9.5l7-5.3z"/>
  <path fill="#EA4335" d="M24 12.1c3 0 5.6 1 7.7 3l5.8-5.8C34 5.8 29.4 4 24 4 16.4 4 9.8 8.2 6.5 14.5l7 5.3c1.5-4.4 5.6-7.7 10.5-7.7z"/>
</svg>
